# xmcd CD database file
#
# Track frame offsets:
#	150
#	18869
#	38426
#	57323
#	77303
#	100324
#	121025
#	140435
#	159240
#	173617
#	201381
#	219077
#
# Disc length: 3150 seconds
#
# Revision: 7
# Processed by: cddbd v1.5.1PL0 Copyright (c) Steve Scherf et al.
# Submitted via: CDex 1.51
#
DISCID=870c4c0c
DTITLE=Hevia - The Other Side
DYEAR=2000
DGENRE=New Age
TTITLE0=Tanzila
TTITLE1=Fandangu Los Llobos
TTITLE2=El Salton
TTITLE3=Kyrie Eleison
TTITLE4=Mermuradora
TTITLE5=Banos De Budapest
TTITLE6=El Sitiu
TTITLE7=Rubiercos
TTITLE8=Son Del Busgosu
TTITLE9=Si Quieres Que Te Cortexe
TTITLE10=Marcha Del Dos De Mayo
TTITLE11=CancióN Oculta
EXTD=YEAR: 2000
EXTT0=
EXTT1=
EXTT2=
EXTT3=
EXTT4=
EXTT5=
EXTT6=
EXTT7=
EXTT8=
EXTT9=
EXTT10=
EXTT11=
PLAYORDER=
